<?xml version="1.0" encoding="iso-8859-1"?>
<!-- Generator: Adobe Illustrator 19.0.0, SVG Export Plug-In . SVG Version: 6.00 Build 0)  -->
<svg version="1.1" id="Layer_1" xmlns="http://www.w3.org/2000/svg" xmlns:xlink="http://www.w3.org/1999/xlink" x="0px" y="0px"
	 viewBox="0 0 495 495" style="enable-background:new 0 0 495 495;" xml:space="preserve">
<g>
	<path style="fill:#9BC9FF;" d="M180,107.5c0-37.22,30.28-67.5,67.5-67.5S315,70.28,315,107.5V175h40v-67.5
		C355,48.224,306.776,0,247.5,0S140,48.224,140,107.5V175h40V107.5z"/>
	<polygon style="fill:#003F8A;" points="247.5,175 247.5,306.717 276.928,277.289 305.211,305.573 275.784,335 305.211,364.427 
		276.928,392.711 247.5,363.283 247.5,495 425,495 425,175 	"/>
	<polygon style="fill:#2488FF;" points="218.072,392.711 189.789,364.427 219.216,335 189.789,305.573 218.072,277.289 
		247.5,306.717 247.5,175 70,175 70,495 247.5,495 247.5,363.283 	"/>
	<polygon style="fill:#BDDBFF;" points="189.789,305.573 219.216,335 189.789,364.427 218.072,392.711 247.5,363.283 
		276.928,392.711 305.211,364.427 275.784,335 305.211,305.573 276.928,277.289 247.5,306.717 218.072,277.289 	"/>
</g>
<g>
</g>
<g>
</g>
<g>
</g>
<g>
</g>
<g>
</g>
<g>
</g>
<g>
</g>
<g>
</g>
<g>
</g>
<g>
</g>
<g>
</g>
<g>
</g>
<g>
</g>
<g>
</g>
<g>
</g>
</svg>
