<?xml version="1.0" encoding="UTF-8" standalone="no"?>
<svg
   viewBox="0 0 16 16"
   version="1.1"
   id="svg13"
   sodipodi:docname="emblem-symbolic-link.svg"
   inkscape:version="1.2.2 (b0a8486541, 2022-12-01)"
   xmlns:inkscape="http://www.inkscape.org/namespaces/inkscape"
   xmlns:sodipodi="http://sodipodi.sourceforge.net/DTD/sodipodi-0.dtd"
   xmlns="http://www.w3.org/2000/svg"
   xmlns:svg="http://www.w3.org/2000/svg">
  <defs
     id="defs17" />
  <sodipodi:namedview
     id="namedview15"
     pagecolor="#ffffff"
     bordercolor="#000000"
     borderopacity="0.25"
     inkscape:showpageshadow="2"
     inkscape:pageopacity="0.0"
     inkscape:pagecheckerboard="0"
     inkscape:deskcolor="#d1d1d1"
     showgrid="false"
     inkscape:zoom="49.875"
     inkscape:cx="5.0125313"
     inkscape:cy="8.0100251"
     inkscape:window-width="1920"
     inkscape:window-height="1001"
     inkscape:window-x="0"
     inkscape:window-y="0"
     inkscape:window-maximized="1"
     inkscape:current-layer="svg13" />
  <style
     type="text/css"
     id="current-color-scheme">
        .ColorScheme-Text {
            color:#eff0f1;
        }
    </style>
  <rect
     fill="#7f8c8d"
     height="10"
     ry="2"
     width="16"
     y="3"
     id="rect3"
     style="fill:#1e1e1e;fill-opacity:1" />
  <path
     d="M2 3C.892 3 0 3.892 0 5v6c0 1.108.892 2 2 2h12c1.108 0 2-.892 2-2V5c0-1.108-.892-2-2-2zm0 1h12c.554 0 1 .446 1 1v6c0 .554-.446 1-1 1H2c-.554 0-1-.446-1-1V5c0-.554.446-1 1-1z"
     style="fill:currentColor;fill-opacity:0.6;stroke:none"
     class="ColorScheme-Text"
     id="path5" />
  <g
     fill="#fff"
     id="g11">
    <rect
       height="2"
       ry="1"
       width="6"
       x="5"
       y="7"
       id="rect7" />
    <path
       d="M3 5c-.554 0-1 .446-1 1v4c0 .554.446 1 1 1h3c.554 0 1-.446 1-1V6c0-.554-.446-1-1-1zm0 1h3v4H3zM10 5c-.554 0-1 .446-1 1v4c0 .554.446 1 1 1h3c.554 0 1-.446 1-1V6c0-.554-.446-1-1-1zm0 1h3v4h-3z"
       id="path9" />
  </g>
</svg>
