<?xml version="1.0" encoding="UTF-8" standalone="no"?>
<!-- Created with Inkscape (http://www.inkscape.org/) -->

<svg
   xmlns:dc="http://purl.org/dc/elements/1.1/"
   xmlns:cc="http://creativecommons.org/ns#"
   xmlns:rdf="http://www.w3.org/1999/02/22-rdf-syntax-ns#"
   xmlns:svg="http://www.w3.org/2000/svg"
   xmlns="http://www.w3.org/2000/svg"
   xmlns:sodipodi="http://sodipodi.sourceforge.net/DTD/sodipodi-0.dtd"
   xmlns:inkscape="http://www.inkscape.org/namespaces/inkscape"
   id="svg6076"
   sodipodi:docname="firewall2.svg"
   viewBox="0 0 162 162"
   version="1.1"
   inkscape:version="0.92.3 (2405546, 2018-03-11)"
   width="162"
   height="162">
  <defs
     id="defs27" />
  <sodipodi:namedview
     id="base"
     bordercolor="#666666"
     inkscape:pageshadow="2"
     inkscape:window-y="24"
     fit-margin-left="0"
     pagecolor="#ffffff"
     fit-margin-top="0"
     inkscape:window-maximized="0"
     inkscape:zoom="1.979899"
     inkscape:window-x="49"
     inkscape:window-height="666"
     showgrid="false"
     borderopacity="1.0"
     inkscape:current-layer="layer1"
     inkscape:cx="50.889857"
     inkscape:cy="116.93706"
     fit-margin-right="0"
     fit-margin-bottom="0"
     inkscape:window-width="1352"
     inkscape:pageopacity="0.0"
     inkscape:document-units="px" />
  <g
     id="layer1"
     inkscape:label="Calque 1"
     inkscape:groupmode="layer"
     transform="translate(-630.34,-443.57)">
    <path
       id="path1244"
       d="m 686.1,483.88445 h 48.491 c 1.3818,0 2.5,1.20356 2.5,2.67934 v 20.70167 c 0,1.48093 -1.1182,2.67934 -2.5,2.67934 H 686.1 c -1.3818,0 -2.5,-1.19841 -2.5,-2.67934 v -20.70167 c 0,-1.47578 1.1182,-2.67934 2.5,-2.67934"
       style="fill:#d94723;fill-rule:evenodd;stroke:#e1e1e1;stroke-width:2.58811808;stroke-linejoin:round;stroke-miterlimit:10"
       inkscape:connector-curvature="0" />
    <path
       id="path1246"
       d="m 739.55,483.92732 h 48.491 c 1.3818,0 2.5,1.19842 2.5,2.67934 v 20.70167 c 0,1.47578 -1.1182,2.67934 -2.5,2.67934 H 739.55 c -1.3818,0 -2.5,-1.20356 -2.5,-2.67934 v -20.70167 c 0,-1.48092 1.1182,-2.67934 2.5,-2.67934"
       style="fill:#d94723;fill-rule:evenodd;stroke:#e1e1e1;stroke-width:2.58811808;stroke-linejoin:round;stroke-miterlimit:10"
       inkscape:connector-curvature="0" />
    <path
       id="path1248"
       d="m 659.98,509.91694 h 48.491 c 1.3818,0 2.5,1.20356 2.5,2.67934 v 20.70167 c 0,1.48092 -1.1182,2.67934 -2.5,2.67934 H 659.98 c -1.3818,0 -2.5,-1.19842 -2.5,-2.67934 v -20.70167 c 0,-1.47578 1.1182,-2.67934 2.5,-2.67934"
       style="fill:#d94723;fill-rule:evenodd;stroke:#e1e1e1;stroke-width:2.58811808;stroke-linejoin:round;stroke-miterlimit:10"
       inkscape:connector-curvature="0" />
    <path
       id="path1250"
       d="m 713.43,509.95981 h 48.491 c 1.3818,0 2.5,1.19841 2.5,2.67934 v 20.70167 c 0,1.47578 -1.1182,2.67934 -2.5,2.67934 H 713.43 c -1.3818,0 -2.5,-1.20356 -2.5,-2.67934 v -20.70167 c 0,-1.48093 1.1182,-2.67934 2.5,-2.67934"
       style="fill:#d94723;fill-rule:evenodd;stroke:#e1e1e1;stroke-width:2.58811808;stroke-linejoin:round;stroke-miterlimit:10"
       inkscape:connector-curvature="0" />
    <path
       id="path1252"
       d="m 686.05,535.97086 h 48.491 c 1.3818,0 2.5,1.19841 2.5,2.67934 v 20.69738 c 0,1.48093 -1.1182,2.67934 -2.5,2.67934 H 686.05 c -1.3818,0 -2.5,-1.19841 -2.5,-2.67934 V 538.6502 c 0,-1.48093 1.1182,-2.67934 2.5,-2.67934"
       style="fill:#d94723;fill-rule:evenodd;stroke:#e1e1e1;stroke-width:2.58811808;stroke-linejoin:round;stroke-miterlimit:10"
       inkscape:connector-curvature="0" />
    <path
       id="path1254"
       d="m 739.5,536.00301 h 48.491 c 1.3818,0 2.5,1.19842 2.5,2.67934 v 20.70167 c 0,1.48092 -1.1182,2.67934 -2.5,2.67934 H 739.5 c -1.3818,0 -2.5,-1.19842 -2.5,-2.67934 v -20.70167 c 0,-1.48092 1.1182,-2.67934 2.5,-2.67934"
       style="fill:#d94723;fill-rule:evenodd;stroke:#e1e1e1;stroke-width:2.58811808;stroke-linejoin:round;stroke-miterlimit:10"
       inkscape:connector-curvature="0" />
    <path
       id="path1256"
       d="m 659.98,562.02478 h 48.491 c 1.377,0 2.5,1.20356 2.5,2.67934 v 20.70167 c 0,1.48092 -1.123,2.67934 -2.5,2.67934 H 659.98 c -1.3818,0 -2.5,-1.19842 -2.5,-2.67934 v -20.70167 c 0,-1.47578 1.1182,-2.67934 2.5,-2.67934"
       style="fill:#d94723;fill-rule:evenodd;stroke:#e1e1e1;stroke-width:2.58811808;stroke-linejoin:round;stroke-miterlimit:10"
       inkscape:connector-curvature="0" />
    <path
       id="path1258"
       d="m 713.43,562.06765 h 48.491 c 1.3818,0 2.5,1.19841 2.5,2.67934 v 20.69738 c 0,1.48093 -1.1182,2.67934 -2.5,2.67934 H 713.43 c -1.3818,0 -2.5,-1.19841 -2.5,-2.67934 v -20.69738 c 0,-1.48093 1.1182,-2.67934 2.5,-2.67934"
       style="fill:#d94723;fill-rule:evenodd;stroke:#e1e1e1;stroke-width:2.58811808;stroke-linejoin:round;stroke-miterlimit:10"
       inkscape:connector-curvature="0" />
    <path
       id="path1260"
       d="m 767.18,509.99196 h 20.801 c 1.3818,0 2.5,1.19842 2.5,2.67934 v 20.69738 c 0,1.48093 -1.1182,2.67934 -2.5,2.67934 H 767.18 c -1.3818,0 -2.5,-1.19841 -2.5,-2.67934 V 512.6713 c 0,-1.48092 1.1182,-2.67934 2.5,-2.67934"
       style="fill:#d94723;fill-rule:evenodd;stroke:#e1e1e1;stroke-width:2.58811808;stroke-linejoin:round;stroke-miterlimit:10"
       inkscape:connector-curvature="0" />
    <path
       id="path1262"
       d="m 766.91,562.0355 h 21.104 c 1.3818,0 2.5,1.19841 2.5,2.67934 v 20.70166 c 0,1.47579 -1.1182,2.67935 -2.5,2.67935 H 766.91 c -1.3818,0 -2.5,-1.20356 -2.5,-2.67935 v -20.70166 c 0,-1.48093 1.1182,-2.67934 2.5,-2.67934"
       style="fill:#d94723;fill-rule:evenodd;stroke:#e1e1e1;stroke-width:2.58811808;stroke-linejoin:round;stroke-miterlimit:10"
       inkscape:connector-curvature="0" />
    <path
       id="path1264"
       d="m 659.92,535.92799 h 21.104 c 1.3818,0 2.5,1.20356 2.5,2.67934 V 559.309 c 0,1.48092 -1.1182,2.67934 -2.5,2.67934 H 659.92 c -1.377,0 -2.5,-1.19842 -2.5,-2.67934 v -20.70167 c 0,-1.47578 1.123,-2.67934 2.5,-2.67934"
       style="fill:#d94723;fill-rule:evenodd;stroke:#e1e1e1;stroke-width:2.58811808;stroke-linejoin:round;stroke-miterlimit:10"
       inkscape:connector-curvature="0" />
    <path
       id="path1266"
       d="m 657.47,523.17432 v 45.11476"
       style="fill:none;stroke:#e1e1e1;stroke-width:2.58811808;stroke-linejoin:round;stroke-miterlimit:10"
       inkscape:connector-curvature="0" />
    <path
       id="path1268"
       d="m 773.91,588.06798 -85.532,-0.0107"
       style="fill:none;stroke:#e1e1e1;stroke-width:2.58811808;stroke-linejoin:round;stroke-miterlimit:10"
       inkscape:connector-curvature="0" />
    <path
       id="path1270"
       d="m 757.01,483.87373 -38.467,-0.12566"
       style="fill:none;stroke:#e1e1e1;stroke-width:2.58811808;stroke-linejoin:round;stroke-miterlimit:10"
       inkscape:connector-curvature="0" />
    <path
       id="path1272"
       d="m 790.46,521.39524 v 45.1094"
       style="fill:none;stroke:#e1e1e1;stroke-width:2.58811808;stroke-linejoin:round;stroke-miterlimit:10"
       inkscape:connector-curvature="0" />
    <path
       id="path1274"
       d="m 790.57,492.26543 v 45.1094"
       style="fill:none;stroke:#e1e1e1;stroke-width:2.58811808;stroke-linejoin:round;stroke-miterlimit:10"
       inkscape:connector-curvature="0" />
    <path
       id="path1276"
       d="m 644.11,519.74476 6.7285,-11.77945 6.0498,-8.21594 3.999,-5.38483 6.3916,-7.48855 -0.7665,6.57275 -0.17,5.11272 0.17,4.56324 0.51275,3.28637 0.7665,2.47003 1.1085,3.37533 1.787,3.65269 2.3828,4.01902 2.4708,4.01376 2.6416,3.19742 3.0713,4.65744 2.9785,4.19693 3.2373,6.38958 3.5791,-5.47379 -0.0875,4.6522 0.17,4.65745 0.9375,6.30063 -0.42475,6.66695 -0.8495,5.11272 -2.2168,7.84962 -2.7246,5.29588 -4.2627,4.92956 -3.5742,3.01426 -6.0498,3.01426 -4.5166,1.18266 -5.0244,0.0943 -3.3249,-0.36646 -4.4287,-1.64319 -4.0039,-2.19266 -3.4912,-3.46954 -3.4082,-4.29112 -2.8125,-4.10797 -3.0664,-7.12223 -1.704,-6.38958 -1.1035,-6.6617 0.0825,-5.93432 0.34175,-6.66695 0.50775,-5.6622 V 526.684 l -0.76675,-4.20217 -1.3622,-4.19692 -2.2168,-4.11322 3.0664,1.00475 4.9463,2.19267 z"
       style="fill:#ee1e14;fill-rule:evenodd;stroke:#ee1e14;stroke-width:1.29405904;stroke-miterlimit:10"
       inkscape:connector-curvature="0" />
    <path
       id="path1278"
       d="m 641.6,522.73491 3.4278,3.49568 3.0908,3.66834 2.4902,3.31778 2.539,4.14462 1.0498,2.30777 0.82525,-1.24547 0.498,-2.72124 0.4005,-5.42149 -0.288,-8.07993 0.62025,-7.90717 2.8564,-7.18503 2.9834,-5.09182 2.0995,-3.55323 -1.1035,3.43288 0.44425,9.17878 0.8935,4.16552 1.4258,3.29162 9.668,18.23239 1.5968,4.02951 0.669,3.96672 0.22,4.20217 0.2735,2.89915 0.38575,2.84161 0.55175,1.95195 1.7138,1.00997 h 2.1582 l 1.709,-0.71168 0.95225,-1.33968 0.88375,-2.48578 0.55175,-3.66834 0.55175,3.31252 0.664,4.62079 -0.44425,7.57751 -1.3232,7.10132 -2.6514,6.39484 -3.0957,3.55324 -4.5264,3.31252 -4.3066,2.49093 -3.7598,1.29777 -3.311,0.35587 -2.7637,0.1203 -3.0908,-0.35585 -3.0957,-1.18266 -2.9834,-2.01476 -2.8711,-2.12986 -2.6123,-3.39633 -3.3691,-6.27974 -1.753,-5.12322 -0.7325,-4.17077 -0.4835,-4.47429 -0.34675,-4.69935 0.1125,-4.20217 0.498,-3.6109 0.71775,-4.08707 0.9375,-3.49568 1.1622,-4.02426 0.44425,-3.25498 -0.17,-3.01951 -1.2158,-3.90916 z"
       style="fill:#f38f19;fill-rule:evenodd;stroke:#f38f19;stroke-width:1.29405904;stroke-miterlimit:10"
       inkscape:connector-curvature="0" />
    <path
       id="path1280"
       d="m 658.53,517.59057 5.0342,8.66071 4.0137,8.83347 2.7197,6.44714 2.5098,6.7559 2.4318,7.75541 1.4355,6.75591 0.42975,5.14412 -0.215,3.99286 -0.6445,4.37483 -1.2208,2.99336 -1.499,3.76266 -1.9385,2.45427 -2.2168,1.69035 -2.9394,1.46002 -3.1348,0.79541 -2.5976,-0.25641 -2.9346,-1.30827 -3.0078,-1.99386 -2.1485,-3.61089 -1.0058,-3.60554 -0.57125,-2.45953 -0.1475,-3.91441 0.0725,-4.60515 0.791,-4.8406 2.0752,-5.52609 2.5098,-4.6836 3.0078,-6.44714 1.6455,-4.99236 0.57125,-3.76265 -0.28325,-4.75691 -0.71775,-6.83446 z"
       style="fill:#f3b326;fill-rule:evenodd;stroke:#f3b326;stroke-width:1.29405904;stroke-miterlimit:10"
       inkscape:connector-curvature="0" />
    <path
       id="path1282"
       d="m 653.45,569.98778 1.328,-5.26973 1.875,-4.60514 1.5625,-3.93531 1.875,-4.18642 2.1092,-3.7678 2.6025,-3.73114 -0.80575,3.89865 v 3.85161 l 0.46875,3.34918 1.5625,2.34442 2.422,3.43288 2.3438,3.7678 1.25,3.18177 1.0108,3.84625 0.39075,2.84675 -0.1525,3.93531 -0.9375,2.93056 -1.9532,2.93055 -3.125,2.76305 -2.3438,1.25596 -1.7968,0.41865 -2.1875,-0.41865 -2.5781,-1.59088 -2.1095,-2.84675 -1.4062,-3.34918 -1.3282,-4.43763 -0.54675,-3.18177 z"
       style="fill:#facc7d;fill-rule:evenodd;stroke:#facc7d;stroke-width:1.29405904;stroke-miterlimit:10"
       inkscape:connector-curvature="0" />
    <path
       id="path1244-3"
       d="m 712.66559,457.58295 h 48.491 c 1.3818,0 2.5,1.20356 2.5,2.67934 v 20.70167 c 0,1.48093 -1.1182,2.67934 -2.5,2.67934 h -48.491 c -1.3818,0 -2.5,-1.19841 -2.5,-2.67934 v -20.70167 c 0,-1.47578 1.1182,-2.67934 2.5,-2.67934"
       style="fill:#d94723;fill-rule:evenodd;stroke:#e1e1e1;stroke-width:2.58811808;stroke-linejoin:round;stroke-miterlimit:10"
       inkscape:connector-curvature="0" />
    <path
       id="path1260-6"
       d="m 766.47254,457.54702 h 20.801 c 1.3818,0 2.5,1.19842 2.5,2.67934 v 20.69738 c 0,1.48093 -1.1182,2.67934 -2.5,2.67934 h -20.801 c -1.3818,0 -2.5,-1.19841 -2.5,-2.67934 v -20.69738 c 0,-1.48092 1.1182,-2.67934 2.5,-2.67934"
       style="fill:#d94723;fill-rule:evenodd;stroke:#e1e1e1;stroke-width:2.58811808;stroke-linejoin:round;stroke-miterlimit:10"
       inkscape:connector-curvature="0" />
    <path
       id="path1260-7"
       d="m 686.55258,457.68941 h 20.801 c 1.3818,0 2.5,1.19842 2.5,2.67934 v 20.69738 c 0,1.48093 -1.1182,2.67934 -2.5,2.67934 h -20.801 c -1.3818,0 -2.5,-1.19841 -2.5,-2.67934 v -20.69738 c 0,-1.48092 1.1182,-2.67934 2.5,-2.67934"
       style="fill:#d94723;fill-rule:evenodd;stroke:#e1e1e1;stroke-width:2.58811808;stroke-linejoin:round;stroke-miterlimit:10"
       inkscape:connector-curvature="0" />
  </g>
  <metadata
     id="metadata24">
    <rdf:RDF>
      <cc:Work>
        <dc:format>image/svg+xml</dc:format>
        <dc:type
           rdf:resource="http://purl.org/dc/dcmitype/StillImage" />
        <cc:license
           rdf:resource="http://creativecommons.org/publicdomain/zero/1.0/" />
        <dc:publisher>
          <cc:Agent
             rdf:about="http://openclipart.org/">
            <dc:title>Openclipart</dc:title>
          </cc:Agent>
        </dc:publisher>
        <dc:title>Firewall</dc:title>
        <dc:date>2012-08-02T14:30:23</dc:date>
        <dc:description />
        <dc:source>https://openclipart.org/detail/171429/firewall-by-cyberscooty-171429</dc:source>
        <dc:creator>
          <cc:Agent>
            <dc:title>cyberscooty</dc:title>
          </cc:Agent>
        </dc:creator>
        <dc:subject>
          <rdf:Bag>
            <rdf:li>computer</rdf:li>
            <rdf:li>firewall</rdf:li>
            <rdf:li>informatique</rdf:li>
            <rdf:li>it</rdf:li>
            <rdf:li>network</rdf:li>
            <rdf:li>ordinateur</rdf:li>
            <rdf:li>réseau</rdf:li>
            <rdf:li>server</rdf:li>
            <rdf:li>serveur</rdf:li>
          </rdf:Bag>
        </dc:subject>
      </cc:Work>
      <cc:License
         rdf:about="http://creativecommons.org/publicdomain/zero/1.0/">
        <cc:permits
           rdf:resource="http://creativecommons.org/ns#Reproduction" />
        <cc:permits
           rdf:resource="http://creativecommons.org/ns#Distribution" />
        <cc:permits
           rdf:resource="http://creativecommons.org/ns#DerivativeWorks" />
      </cc:License>
    </rdf:RDF>
  </metadata>
</svg>
