<?xml version="1.0" encoding="UTF-8" standalone="no"?>
<svg
   width="24"
   height="24"
   version="1.1"
   id="svg9"
   sodipodi:docname="go-previous-symbolic.svg"
   inkscape:version="1.2.2 (b0a8486541, 2022-12-01)"
   xmlns:inkscape="http://www.inkscape.org/namespaces/inkscape"
   xmlns:sodipodi="http://sodipodi.sourceforge.net/DTD/sodipodi-0.dtd"
   xmlns="http://www.w3.org/2000/svg"
   xmlns:svg="http://www.w3.org/2000/svg">
  <sodipodi:namedview
     id="namedview11"
     pagecolor="#ffffff"
     bordercolor="#000000"
     borderopacity="0.25"
     inkscape:showpageshadow="2"
     inkscape:pageopacity="0.0"
     inkscape:pagecheckerboard="0"
     inkscape:deskcolor="#d1d1d1"
     showgrid="false"
     inkscape:zoom="13.906433"
     inkscape:cx="-4.6381412"
     inkscape:cy="14.921152"
     inkscape:window-width="1920"
     inkscape:window-height="1117"
     inkscape:window-x="0"
     inkscape:window-y="0"
     inkscape:window-maximized="1"
     inkscape:current-layer="svg9" />
  <defs
     id="defs3">
    <style
       id="current-color-scheme"
       type="text/css">
   .ColorScheme-Text { color:#ffffff; } .ColorScheme-Highlight { color:#4285f4; } .ColorScheme-NeutralText { color:#ff9800; } .ColorScheme-PositiveText { color:#4caf50; } .ColorScheme-NegativeText { color:#f44336; }
  </style>
  </defs>
  <g
     transform="matrix(-1,0,0,1,19.686749,4)"
     id="g7">
    <path
       class="ColorScheme-Text"
       d="m 8.9750411,9.5385148 c 0,0 -3.9677518,3.9087422 -6.0074938,5.8041522 -0.586108,0.544636 -0.537726,1.747303 0.079239,2.274308 0.8263149,0.705831 1.7981554,0.910431 2.4954021,0.213185 3.3752557,-3.375256 10.2985606,-9.9499744 10.2985606,-9.9499744 0,0 -6.8957469,-6.602504 -10.2985607,-9.9499756 -0.6027857,-0.592982 -2.057292,-0.5094018 -2.6556521,0.1447409 -0.5273919,0.5765583 -0.6801449,1.61349476 0.081011,2.34275306 2.010578,1.92631924 6.0074939,5.80415234 6.0074939,5.80415234 1.8503039,1.6511706 1.8465569,1.6464994 0,3.3166585 z"
       style="display:inline;fill:#ffffff;fill-opacity:1;stroke-width:1.68713"
       id="path5"
       inkscape:label="path5"
       sodipodi:nodetypes="cssscssscc" />
  </g>
</svg>
