<?xml version="1.0" encoding="UTF-8" standalone="no"?>
<svg
   xmlns:dc="http://purl.org/dc/elements/1.1/"
   xmlns:cc="http://creativecommons.org/ns#"
   xmlns:rdf="http://www.w3.org/1999/02/22-rdf-syntax-ns#"
   xmlns:svg="http://www.w3.org/2000/svg"
   xmlns="http://www.w3.org/2000/svg"
   xmlns:sodipodi="http://sodipodi.sourceforge.net/DTD/sodipodi-0.dtd"
   xmlns:inkscape="http://www.inkscape.org/namespaces/inkscape"
   height="16"
   width="16"
   version="1.1"
   id="svg2"
   inkscape:version="0.91 r13725"
   sodipodi:docname="audio-volume-medium-symbolic.svg">
  <metadata
     id="metadata18">
    <rdf:RDF>
      <cc:Work
         rdf:about="">
        <dc:format>image/svg+xml</dc:format>
        <dc:type
           rdf:resource="http://purl.org/dc/dcmitype/StillImage" />
        <dc:title />
      </cc:Work>
    </rdf:RDF>
  </metadata>
  <defs
     id="defs16">
    <marker
       inkscape:stockid="Arrow1Lstart"
       orient="auto"
       refY="0.0"
       refX="0.0"
       id="Arrow1Lstart"
       style="overflow:visible"
       inkscape:isstock="true">
      <path
         id="path4150"
         d="M 0.0,0.0 L 5.0,-5.0 L -12.5,0.0 L 5.0,5.0 L 0.0,0.0 z "
         style="fill-rule:evenodd;stroke:#000000;stroke-width:1pt;stroke-opacity:1;fill:#bebebe;fill-opacity:1"
         transform="scale(0.8) translate(12.5,0)" />
    </marker>
  </defs>
  <sodipodi:namedview
     pagecolor="#ffffff"
     bordercolor="#666666"
     borderopacity="1"
     objecttolerance="10"
     gridtolerance="10"
     guidetolerance="10"
     inkscape:pageopacity="0"
     inkscape:pageshadow="2"
     inkscape:window-width="1600"
     inkscape:window-height="828"
     id="namedview14"
     showgrid="false"
     inkscape:zoom="50.763914"
     inkscape:cx="8.9578614"
     inkscape:cy="10.389211"
     inkscape:window-x="0"
     inkscape:window-y="0"
     inkscape:window-maximized="1"
     inkscape:current-layer="g4" />
  <g
     fill="#bebebe"
     id="g4"
     style="stroke:#000000;stroke-opacity:1">
    <path
       d="m 12.746232,0.2881356 -1.122029,0.9437203 c 1.777,1.6949 2.918165,4.1681441 2.918165,6.7531441 0,2.6155 -1.1103,4.9943 -2.9231,6.6936 l 0.469746,0.439644 c 2.174,-2.045 3.193699,-3.991644 3.193699,-7.133644 0,-3.126 -0.98975,-5.1116915 -2.892513,-7.3239831 z"
       id="path6"
       style="stroke:#c8c8c8;stroke-opacity:1"
       inkscape:connector-curvature="0"
       sodipodi:nodetypes="ccsccscc" />
    <path
       d="M 10.93602,2.1851497 9.8972866,3.1310725 c 1.2664954,1.1902 2.0624954,2.8232 2.0624954,4.6382 0,1.8296 -1.144296,3.7870065 -2.4293715,4.9795065 0.2616011,0.291274 0.4817755,0.397303 0.6627375,0.607939 1.657997,-1.534 2.520208,-3.206575 2.520208,-5.5637758 0,-2.333 -0.492636,-3.7152386 -2.121636,-5.2456386 z"
       id="path8"
       style="stroke:#00ff00;stroke-opacity:1"
       inkscape:connector-curvature="0"
       sodipodi:nodetypes="ccsccscc" />
    <path
       d="M 8.487288,4.4164288 8.1684321,4.7158814 c 0.724,0.68 1.3400424,1.7575423 1.3400424,2.7945423 0,1.8283329 -0.6285424,3.0567963 -1.3713424,3.7397963 l 0.2510594,0.265755 c 1.1044,-1.024 1.459266,-1.9445258 1.459266,-3.5155258 0,-1.555 -0.087729,-1.7177628 -0.8855932,-3.0770459 z"
       id="path12"
       style="stroke:#00ff00;stroke-width:1.29999995;stroke-miterlimit:4;stroke-dasharray:none;stroke-opacity:1;fill:none;fill-opacity:1"
       inkscape:connector-curvature="0"
       sodipodi:nodetypes="ccsccscc" />
    <path
       style="fill:none;fill-rule:evenodd;stroke:#00ff00;stroke-width:2.01857758;stroke-linecap:butt;stroke-linejoin:miter;stroke-miterlimit:4;stroke-dasharray:none;stroke-opacity:1"
       d="m 2.3258426,7.2274814 0,1.8095042 1.8337173,-0.014362 1.2568175,0.775503 0,-3.2312583 -1.2156104,0.6749736 z"
       id="path4147"
       inkscape:connector-curvature="0" />
  </g>
</svg>
