<?xml version="1.0" encoding="UTF-8" standalone="no"?>
<svg
   xmlns:dc="http://purl.org/dc/elements/1.1/"
   xmlns:cc="http://creativecommons.org/ns#"
   xmlns:rdf="http://www.w3.org/1999/02/22-rdf-syntax-ns#"
   xmlns:svg="http://www.w3.org/2000/svg"
   xmlns="http://www.w3.org/2000/svg"
   xmlns:sodipodi="http://sodipodi.sourceforge.net/DTD/sodipodi-0.dtd"
   xmlns:inkscape="http://www.inkscape.org/namespaces/inkscape"
   height="16"
   width="16"
   version="1.1"
   id="svg2"
   inkscape:version="0.91 r"
   sodipodi:docname="battery-good-charging-symbolic.svg">
  <metadata
     id="metadata16">
    <rdf:RDF>
      <cc:Work
         rdf:about="">
        <dc:format>image/svg+xml</dc:format>
        <dc:type
           rdf:resource="http://purl.org/dc/dcmitype/StillImage" />
        <dc:title></dc:title>
      </cc:Work>
    </rdf:RDF>
  </metadata>
  <defs
     id="defs14" />
  <sodipodi:namedview
     pagecolor="#ffffff"
     bordercolor="#666666"
     borderopacity="1"
     objecttolerance="10"
     gridtolerance="10"
     guidetolerance="10"
     inkscape:pageopacity="0"
     inkscape:pageshadow="2"
     inkscape:window-width="1366"
     inkscape:window-height="747"
     id="namedview12"
     showgrid="false"
     inkscape:zoom="20.85965"
     inkscape:cx="-4.0030309"
     inkscape:cy="11.208282"
     inkscape:window-x="0"
     inkscape:window-y="0"
     inkscape:window-maximized="1"
     inkscape:current-layer="g5293" />
  <g
     fill="#bebebe"
     id="g4">
    <path
       d="m0 14.75c0 0.692 0.5575 1.25 1.25 1.25h8.5c0.692 0 1.25-0.558 1.25-1.25v-1.688l-2-3.374v3.562c0 0.416-0.3345 0.75-0.75 0.75h-5.5c-0.4155 0-0.75-0.334-0.75-0.75v-8.5c0-0.416 0.3345-0.75 0.75-0.75h5.5c0.4155 0 0.75 0.334 0.75 0.75v3.25h2v-4.7502c0-0.6925-0.558-1.25-1.25-1.25h-1.75v-1.5c0-0.277-0.223-0.5-0.5-0.5h-4c-0.277 0-0.5 0.223-0.5 0.5v1.5h-1.75c-0.6925 0-1.25 0.5575-1.25 1.25v11.5z"
       id="path6" />
    <rect
       opacity=".45"
       rx="0"
       ry="0"
       height="10"
       width="7"
       y="4"
       x="2"
       id="rect10" />
    <path
       style="color:#000000;font-style:normal;font-variant:normal;font-weight:normal;font-stretch:normal;font-size:medium;line-height:normal;font-family:sans-serif;text-indent:0;text-align:start;text-decoration:none;text-decoration-line:none;text-decoration-style:solid;text-decoration-color:#000000;letter-spacing:normal;word-spacing:normal;text-transform:none;direction:ltr;block-progression:tb;writing-mode:lr-tb;baseline-shift:baseline;text-anchor:start;white-space:normal;clip-rule:nonzero;display:inline;overflow:visible;visibility:visible;opacity:0.97000002;isolation:auto;mix-blend-mode:normal;color-interpolation:sRGB;color-interpolation-filters:linearRGB;solid-color:#000000;solid-opacity:1;fill:none;fill-opacity:1;fill-rule:evenodd;stroke:#01ff00;stroke-width:0.99999994;stroke-linecap:butt;stroke-linejoin:miter;stroke-miterlimit:4;stroke-dasharray:none;stroke-dashoffset:0;stroke-opacity:1;color-rendering:auto;image-rendering:auto;shape-rendering:auto;text-rendering:auto;enable-background:accumulate"
       d="m 12.981119,13.593953 0.01258,-0.802326 0.06089,-3.6195467 -2.729682,0.00969 2.073433,3.4898237 z m -0.55834,-1.820457 -1.133922,-2.0480135 1.168386,-0.00429 z m -0.03656,-0.145819 0.03425,-1.263326 -0.08241,-0.6622819 -0.160595,-0.048393 -0.930382,0.0777 0.358835,0.4748519 z"
       id="path4702"
       inkscape:connector-curvature="0"
       sodipodi:nodetypes="ccccccccccccccccc" />
  </g>
  <g
     id="g5293"
     fill="#bebebe">
    <path
       id="path5295"
       d="m0 14.75c0 0.692 0.5575 1.25 1.25 1.25h8.5c0.692 0 1.25-0.558 1.25-1.25v-1.688l-2-3.374v3.562c0 0.416-0.3345 0.75-0.75 0.75h-5.5c-0.4155 0-0.75-0.334-0.75-0.75v-8.5c0-0.416 0.3345-0.75 0.75-0.75h5.5c0.4155 0 0.75 0.334 0.75 0.75v3.25h2v-4.7502c0-0.6925-0.558-1.25-1.25-1.25h-1.75v-1.5c0-0.277-0.223-0.5-0.5-0.5h-4c-0.277 0-0.5 0.223-0.5 0.5v1.5h-1.75c-0.6925 0-1.25 0.5575-1.25 1.25v11.5z" />
    <rect
       id="rect5297"
       x="2"
       y="6.8284273"
       width="7"
       height="7.1715727"
       ry="0"
       rx="0"
       style="opacity:0.45" />
    <path
       sodipodi:nodetypes="ccccccccccccccccc"
       inkscape:connector-curvature="0"
       id="path5299"
       d="m 12.677908,4.8674228 -0.01096,0.7892404 -0.05304,3.5605162 2.377663,-0.00953 -1.806044,-3.4329079 z m 0.486337,1.7907669 0.987691,2.0146129 -1.01771,0.00422 z m 0.03184,0.1434411 -0.02983,1.2427212 0.07178,0.6514821 0.139885,0.047603 0.8104,-0.076432 -0.312561,-0.4671074 z"
       style="color:#000000;font-style:normal;font-variant:normal;font-weight:normal;font-stretch:normal;font-size:medium;line-height:normal;font-family:sans-serif;text-indent:0;text-align:start;text-decoration:none;text-decoration-line:none;text-decoration-style:solid;text-decoration-color:#000000;letter-spacing:normal;word-spacing:normal;text-transform:none;direction:ltr;block-progression:tb;writing-mode:lr-tb;baseline-shift:baseline;text-anchor:start;white-space:normal;clip-rule:nonzero;display:inline;overflow:visible;visibility:visible;opacity:1;isolation:auto;mix-blend-mode:normal;color-interpolation:sRGB;color-interpolation-filters:linearRGB;solid-color:#000000;solid-opacity:1;fill:none;fill-opacity:1;fill-rule:evenodd;stroke:#00ff00;stroke-width:1;stroke-linecap:butt;stroke-linejoin:miter;stroke-miterlimit:4;stroke-dasharray:none;stroke-dashoffset:0;stroke-opacity:1;color-rendering:auto;image-rendering:auto;shape-rendering:auto;text-rendering:auto;enable-background:accumulate" />
  </g>
</svg>
