<?xml version="1.0" encoding="UTF-8" standalone="no"?>
<svg
   xmlns:dc="http://purl.org/dc/elements/1.1/"
   xmlns:cc="http://creativecommons.org/ns#"
   xmlns:rdf="http://www.w3.org/1999/02/22-rdf-syntax-ns#"
   xmlns:svg="http://www.w3.org/2000/svg"
   xmlns="http://www.w3.org/2000/svg"
   xmlns:sodipodi="http://sodipodi.sourceforge.net/DTD/sodipodi-0.dtd"
   xmlns:inkscape="http://www.inkscape.org/namespaces/inkscape"
   height="16"
   width="16"
   version="1.1"
   id="svg2"
   inkscape:version="0.91 r"
   sodipodi:docname="battery-full-charged-symbolic.svg">
  <metadata
     id="metadata14">
    <rdf:RDF>
      <cc:Work
         rdf:about="">
        <dc:format>image/svg+xml</dc:format>
        <dc:type
           rdf:resource="http://purl.org/dc/dcmitype/StillImage" />
        <dc:title></dc:title>
      </cc:Work>
    </rdf:RDF>
  </metadata>
  <defs
     id="defs12" />
  <sodipodi:namedview
     pagecolor="#ffffff"
     bordercolor="#666666"
     borderopacity="1"
     objecttolerance="10"
     gridtolerance="10"
     guidetolerance="10"
     inkscape:pageopacity="0"
     inkscape:pageshadow="2"
     inkscape:window-width="1366"
     inkscape:window-height="747"
     id="namedview10"
     showgrid="false"
     inkscape:zoom="14.75"
     inkscape:cx="-0.61016981"
     inkscape:cy="8"
     inkscape:window-x="0"
     inkscape:window-y="0"
     inkscape:window-maximized="1"
     inkscape:current-layer="layer1" />
  <g
     inkscape:groupmode="layer"
     id="layer1"
     inkscape:label="Layer 1">
    <rect
       style="opacity:1;fill-opacity:1;fill-rule:nonzero;stroke:#00ff00;stroke-width:4.131;stroke-linecap:butt;stroke-linejoin:miter;stroke-miterlimit:1.41999996;stroke-dasharray:none;stroke-opacity:1"
       id="rect4210"
       width="4.0478196"
       height="7.2342591"
       x="5.8065996"
       y="5.738802" />
  </g>
  <g
     fill="#bebebe"
     id="g4">
    <path
       d="m2.5 14.75c0 0.692 0.5575 1.25 1.25 1.25h8.5c0.692 0 1.25-0.558 1.25-1.25v-11.5c0-0.6925-0.558-1.25-1.25-1.25h-1.75v-1.5c0-0.277-0.223-0.5-0.5-0.5h-4c-0.277 0-0.5 0.223-0.5 0.5v1.5h-1.75c-0.6925 0-1.25 0.5575-1.25 1.25zm2-1.5v-8.5c0-0.416 0.3345-0.75 0.75-0.75h5.5c0.4155 0 0.75 0.3345 0.75 0.75v8.5c0 0.416-0.334 0.75-0.75 0.75h-5.5c-0.4155 0-0.75-0.334-0.75-0.75z"
       id="path8" />
  </g>
</svg>
