<?xml version="1.0" encoding="UTF-8" standalone="no"?>
<svg
   xmlns:dc="http://purl.org/dc/elements/1.1/"
   xmlns:cc="http://creativecommons.org/ns#"
   xmlns:rdf="http://www.w3.org/1999/02/22-rdf-syntax-ns#"
   xmlns:svg="http://www.w3.org/2000/svg"
   xmlns="http://www.w3.org/2000/svg"
   xmlns:sodipodi="http://sodipodi.sourceforge.net/DTD/sodipodi-0.dtd"
   xmlns:inkscape="http://www.inkscape.org/namespaces/inkscape"
   height="16"
   width="16"
   version="1.1"
   id="svg2"
   inkscape:version="0.91 r13725"
   sodipodi:docname="network-wireless-signal-weak-symbolic.svg">
  <metadata
     id="metadata18">
    <rdf:RDF>
      <cc:Work
         rdf:about="">
        <dc:format>image/svg+xml</dc:format>
        <dc:type
           rdf:resource="http://purl.org/dc/dcmitype/StillImage" />
      </cc:Work>
    </rdf:RDF>
  </metadata>
  <defs
     id="defs16" />
  <sodipodi:namedview
     pagecolor="#ffffff"
     bordercolor="#666666"
     borderopacity="1"
     objecttolerance="10"
     gridtolerance="10"
     guidetolerance="10"
     inkscape:pageopacity="0"
     inkscape:pageshadow="2"
     inkscape:window-width="1600"
     inkscape:window-height="828"
     id="namedview14"
     showgrid="false"
     inkscape:zoom="22.512099"
     inkscape:cx="10.633712"
     inkscape:cy="3.9822522"
     inkscape:window-x="0"
     inkscape:window-y="0"
     inkscape:window-maximized="1"
     inkscape:current-layer="g4" />
  <g
     fill="#bebebe"
     id="g4">
    <path
       opacity=".45"
       d="m8 2c-3.1188 0-5.9562 1.3284-8 3.5l1.3529 1.4375c1.7032-1.8096 4.0481-2.9375 6.6471-2.9375s4.9439 1.1279 6.6471 2.9375l1.353-1.4375c-2.044-2.1716-4.881-3.5-7.9999-3.5z"
       id="path6"
       style="opacity:0.55" />
    <path
       opacity=".45"
       d="m8 5c-2.3391 0-4.4671 0.9963-6 2.625l1.3529 1.4375c1.1923-1.2668 2.8278-2.0625 4.6471-2.0625s3.455 0.7957 4.647 2.0625l1.353-1.4375c-1.533-1.6287-3.661-2.625-6-2.625z"
       id="path8"
       style="opacity:0.55" />
    <path
       opacity=".45"
       d="m8 8c-1.5594 0-2.9781 0.6642-4 1.75l1.3235 1.4062c0.6813-0.724 1.6369-1.156 2.6765-1.156s1.9952 0.43239 2.6765 1.1562l1.324-1.406c-1.022-1.0858-2.4406-1.75-4-1.75z"
       id="path10"
       style="opacity:0.55" />
    <path
       d="m 8.0696467,11.384121 c -0.4623868,0 -0.8830242,0.164479 -1.1860634,0.433496 l 1.1860634,1.052775 1.1860634,-1.052775 C 8.9526709,11.5486 8.5320335,11.384121 8.0696467,11.384121 Z"
       id="path12"
       style="fill:none;stroke:#ffff4f;stroke-width:1.36194849;stroke-miterlimit:4;stroke-dasharray:none;stroke-opacity:1"
       inkscape:connector-curvature="0" />
  </g>
</svg>
