<?xml version="1.0" encoding="UTF-8" standalone="no"?>
<svg
   xmlns:dc="http://purl.org/dc/elements/1.1/"
   xmlns:cc="http://creativecommons.org/ns#"
   xmlns:rdf="http://www.w3.org/1999/02/22-rdf-syntax-ns#"
   xmlns:svg="http://www.w3.org/2000/svg"
   xmlns="http://www.w3.org/2000/svg"
   xmlns:sodipodi="http://sodipodi.sourceforge.net/DTD/sodipodi-0.dtd"
   xmlns:inkscape="http://www.inkscape.org/namespaces/inkscape"
   height="16"
   width="16"
   version="1.1"
   id="svg2"
   inkscape:version="0.91 r13725"
   sodipodi:docname="network-wireless-signal-excellent-symbolic.svg">
  <metadata
     id="metadata18">
    <rdf:RDF>
      <cc:Work
         rdf:about="">
        <dc:format>image/svg+xml</dc:format>
        <dc:type
           rdf:resource="http://purl.org/dc/dcmitype/StillImage" />
        <dc:title />
      </cc:Work>
    </rdf:RDF>
  </metadata>
  <defs
     id="defs16" />
  <sodipodi:namedview
     pagecolor="#ffffff"
     bordercolor="#666666"
     borderopacity="1"
     objecttolerance="10"
     gridtolerance="10"
     guidetolerance="10"
     inkscape:pageopacity="0"
     inkscape:pageshadow="2"
     inkscape:window-width="1600"
     inkscape:window-height="828"
     id="namedview14"
     showgrid="false"
     inkscape:snap-global="true"
     inkscape:snap-bbox="false"
     inkscape:zoom="23.689514"
     inkscape:cx="-4.1415021"
     inkscape:cy="8.086874"
     inkscape:window-x="0"
     inkscape:window-y="0"
     inkscape:window-maximized="1"
     inkscape:current-layer="g4" />
  <g
     fill="#bebebe"
     id="g4">
    <path
       d="m 7.9619873,2.5034566 c -2.1357228,0 -5.2228119,0.9760902 -7.07460301,2.6466373 L 1.5015251,5.9647693 C 3.0447146,4.572698 5.8149575,3.543288 8.1697892,3.543288 c 2.3548328,0 4.9891488,0.7706097 6.5323398,2.162681 L 15.214416,5.0206937 C 13.362446,3.3501466 10.408225,2.5034566 8.0835577,2.5034566 Z"
       id="path6"
       style="opacity:1;stroke:#ffff4f;stroke-width:1.2118504;stroke-miterlimit:4;stroke-dasharray:none;stroke-opacity:1;fill:none"
       inkscape:connector-curvature="0"
       sodipodi:nodetypes="sccsccss" />
    <path
       d="m 8.0012294,5.6416836 c -2.0454821,0 -3.666483,0.8034917 -5.0069641,1.8418721 l 0.4448685,0.4552258 c 1.0426357,-0.8076502 3.0380975,-1.637531 4.6290282,-1.637531 1.5909306,0 3.536378,0.6024341 4.578754,1.4100843 l 0.49428,-0.5286893 C 11.800626,6.144265 10.046626,5.6416836 8.0012294,5.6416836 Z"
       id="path8"
       style="stroke:#ffff4f;stroke-width:1.49552369;stroke-miterlimit:4;stroke-dasharray:none;stroke-opacity:1"
       inkscape:connector-curvature="0"
       sodipodi:nodetypes="sccsccs" />
    <path
       d="m 7.9823884,8.3455234 c -1.2444451,0 -2.4412314,0.3416971 -3.2567366,1.2732911 L 5.2242746,10.239126 C 5.7679712,9.6179482 7.2068619,9.1309647 8.0364922,9.1309647 c 0.82963,0 2.3612408,0.4212628 2.9049368,1.0422783 L 11.53985,9.5474548 C 10.724266,8.6158607 9.2272328,8.3458667 7.9827875,8.3458667 Z"
       id="path10"
       style="stroke:#ffff4f;stroke-width:0.92751795;stroke-miterlimit:4;stroke-dasharray:none;stroke-opacity:1"
       inkscape:connector-curvature="0"
       sodipodi:nodetypes="cccscccc" />
    <path
       d="m 8.0824456,11.066659 c -0.6474743,0.0059 -0.9547393,0.155536 -1.3735002,0.494965 L 8.1132796,12.920367 9.4739325,11.47004 C 9.0440093,11.138426 8.7299197,11.060696 8.0824456,11.066659 Z"
       id="path12"
       inkscape:connector-curvature="0"
       style="stroke:#ffff4f;stroke-width:1.461;stroke-miterlimit:4;stroke-dasharray:none;stroke-opacity:1"
       sodipodi:nodetypes="ccccc" />
  </g>
</svg>
