<?xml version="1.0" encoding="UTF-8" standalone="no"?>
<svg
   xmlns:dc="http://purl.org/dc/elements/1.1/"
   xmlns:cc="http://creativecommons.org/ns#"
   xmlns:rdf="http://www.w3.org/1999/02/22-rdf-syntax-ns#"
   xmlns:svg="http://www.w3.org/2000/svg"
   xmlns="http://www.w3.org/2000/svg"
   xmlns:sodipodi="http://sodipodi.sourceforge.net/DTD/sodipodi-0.dtd"
   xmlns:inkscape="http://www.inkscape.org/namespaces/inkscape"
   height="16"
   width="16"
   version="1.1"
   id="svg2"
   inkscape:version="0.91 r13725"
   sodipodi:docname="network-wired-acquiring-symbolic.svg">
  <metadata
     id="metadata14">
    <rdf:RDF>
      <cc:Work
         rdf:about="">
        <dc:format>image/svg+xml</dc:format>
        <dc:type
           rdf:resource="http://purl.org/dc/dcmitype/StillImage" />
        <dc:title />
      </cc:Work>
    </rdf:RDF>
  </metadata>
  <defs
     id="defs12" />
  <sodipodi:namedview
     pagecolor="#ffffff"
     bordercolor="#666666"
     borderopacity="1"
     objecttolerance="10"
     gridtolerance="10"
     guidetolerance="10"
     inkscape:pageopacity="0"
     inkscape:pageshadow="2"
     inkscape:window-width="1600"
     inkscape:window-height="828"
     id="namedview10"
     showgrid="false"
     inkscape:zoom="35.343269"
     inkscape:cx="-1.95803"
     inkscape:cy="2.7539345"
     inkscape:window-x="0"
     inkscape:window-y="0"
     inkscape:window-maximized="1"
     inkscape:current-layer="svg2" />
  <g
     id="g4"
     transform="matrix(-1,0,0,1,16.00375,0)"
     style="fill:#bebebe">
    <path
       d="M 5.8438,7 A 0.63313,0.63137 0 0 0 5.5625,7.1875 l -2.375,2.375 A 0.63313,0.63137 0 0 0 3,10 l 0,1.875 -2.75,2.75 c -0.31442,0.31442 -0.31442,0.81058 0,1.125 0.31442,0.31442 0.81058,0.31442 1.125,0 L 4.125,13 6,13 a 0.63313,0.63137 0 0 0 0.4375,-0.1875 l 2.375,-2.375 a 0.63313,0.63137 0 0 0 0,-0.875 L 6.4375,7.1885 A 0.63313,0.63137 0 0 0 5.8438,7.001 Z"
       id="path6"
       style="fill:#ffffff"
       inkscape:connector-curvature="0" />
    <path
       d="m 10.16,8.9723 a 0.63313,0.63137 0 0 0 0.28125,-0.1875 l 2.375,-2.375 a 0.63313,0.63137 0 0 0 0.1875,-0.4375 l 0,-1.875 2.75,-2.75 c 0.31442,-0.31442 0.31442,-0.81058 0,-1.125 -0.31442,-0.31442 -0.81058,-0.31442 -1.125,0 l -2.75,2.75 -1.875,0 a 0.63313,0.63137 0 0 0 -0.4375,0.1875 l -2.375,2.375 a 0.63313,0.63137 0 0 0 0,0.875 l 2.375,2.375 a 0.63313,0.63137 0 0 0 0.5935,0.1875 z"
       id="path8"
       style="fill:#ffffff"
       inkscape:connector-curvature="0" />
  </g>
  <path
     inkscape:connector-curvature="0"
     d="m 3.8290001,14.865237 a 0.52499999,0.52500021 0 0 0 1.0499998,0 0.52499999,0.52500021 0 1 0 -1.0499998,0 z"
     id="path38"
     style="fill-opacity:1;stroke:#ffff00;stroke-width:1.05000007;stroke-miterlimit:4;stroke-dasharray:none;stroke-opacity:1" />
  <path
     style="fill-opacity:1;stroke:#ffff00;stroke-width:1.05000007;stroke-miterlimit:4;stroke-dasharray:none;stroke-opacity:1"
     id="path4138"
     d="m 6.7090001,14.865307 a 0.52499999,0.52500021 0 0 0 1.0499998,0 0.52499999,0.52500021 0 1 0 -1.0499998,0 z"
     inkscape:connector-curvature="0" />
  <path
     inkscape:connector-curvature="0"
     d="m 9.509,14.865307 a 0.525,0.52500022 0 0 0 1.05,0 0.525,0.52500022 0 1 0 -1.05,0 z"
     id="path4140"
     style="fill-opacity:1;stroke:#ffff00;stroke-width:1.05000007;stroke-miterlimit:4;stroke-dasharray:none;stroke-opacity:1" />
</svg>
