<?xml version="1.0" encoding="UTF-8" standalone="no"?>
<!-- Generator: Adobe Illustrator 19.0.0, SVG Export Plug-In . SVG Version: 6.00 Build 0)  -->

<svg
   xmlns:dc="http://purl.org/dc/elements/1.1/"
   xmlns:cc="http://creativecommons.org/ns#"
   xmlns:rdf="http://www.w3.org/1999/02/22-rdf-syntax-ns#"
   xmlns:svg="http://www.w3.org/2000/svg"
   xmlns="http://www.w3.org/2000/svg"
   xmlns:sodipodi="http://sodipodi.sourceforge.net/DTD/sodipodi-0.dtd"
   xmlns:inkscape="http://www.inkscape.org/namespaces/inkscape"
   version="1.1"
   id="Layer_1"
   x="0px"
   y="0px"
   viewBox="0 0 512 512"
   style="enable-background:new 0 0 512 512;"
   xml:space="preserve"
   sodipodi:docname="right-arrow.svg"
   inkscape:version="0.92.5 (2060ec1f9f, 2020-04-08)"><metadata
   id="metadata45"><rdf:RDF><cc:Work
       rdf:about=""><dc:format>image/svg+xml</dc:format><dc:type
         rdf:resource="http://purl.org/dc/dcmitype/StillImage" /></cc:Work></rdf:RDF></metadata><defs
   id="defs43" /><sodipodi:namedview
   pagecolor="#ffffff"
   bordercolor="#666666"
   borderopacity="1"
   objecttolerance="10"
   gridtolerance="10"
   guidetolerance="10"
   inkscape:pageopacity="0"
   inkscape:pageshadow="2"
   inkscape:window-width="1523"
   inkscape:window-height="965"
   id="namedview41"
   showgrid="false"
   inkscape:zoom="0.4609375"
   inkscape:cx="260.33898"
   inkscape:cy="256"
   inkscape:window-x="0"
   inkscape:window-y="0"
   inkscape:window-maximized="0"
   inkscape:current-layer="Layer_1" />
<polygon
   style="fill:#00b4d7"
   points="256.038,438.464 256.038,308.973 8.829,308.973 8.829,203.027 256.038,203.027 256.038,73.536 497.361,256 "
   id="polygon2"
   transform="matrix(1,0,0,1.1238368,0,-31.202228)" />
<polygon
   style="fill:#0093c4"
   points="256.038,438.464 497.361,256 8.829,256 8.829,308.973 256.038,308.973 "
   id="polygon4"
   transform="matrix(1,0,0,1.1238368,0,-31.202228)" />
<path
   d="M 247.209,481.5 V 325.95536 H 0 V 187.04464 H 247.209 V 31.5 L 512,256.5 Z M 17.658,306.11065 H 264.867 V 441.6184 L 482.721,256.5 264.867,71.381598 V 206.88935 H 17.658 Z"
   id="path6"
   inkscape:connector-curvature="0"
   style="stroke-width:1.06011176" />
<rect
   x="-477.18741"
   y="38.088943"
   transform="matrix(-0.56108855,-0.82775579,0.75963962,-0.65034425,0,0)"
   style="fill:#ffffff;stroke-width:1.0634985"
   width="19.071407"
   height="162.72865"
   id="rect8" />
<g
   id="g10"
   transform="matrix(1,0,0,1.1238368,0,-31.202228)">
</g>
<g
   id="g12"
   transform="matrix(1,0,0,1.1238368,0,-31.202228)">
</g>
<g
   id="g14"
   transform="matrix(1,0,0,1.1238368,0,-31.202228)">
</g>
<g
   id="g16"
   transform="matrix(1,0,0,1.1238368,0,-31.202228)">
</g>
<g
   id="g18"
   transform="matrix(1,0,0,1.1238368,0,-31.202228)">
</g>
<g
   id="g20"
   transform="matrix(1,0,0,1.1238368,0,-31.202228)">
</g>
<g
   id="g22"
   transform="matrix(1,0,0,1.1238368,0,-31.202228)">
</g>
<g
   id="g24"
   transform="matrix(1,0,0,1.1238368,0,-31.202228)">
</g>
<g
   id="g26"
   transform="matrix(1,0,0,1.1238368,0,-31.202228)">
</g>
<g
   id="g28"
   transform="matrix(1,0,0,1.1238368,0,-31.202228)">
</g>
<g
   id="g30"
   transform="matrix(1,0,0,1.1238368,0,-31.202228)">
</g>
<g
   id="g32"
   transform="matrix(1,0,0,1.1238368,0,-31.202228)">
</g>
<g
   id="g34"
   transform="matrix(1,0,0,1.1238368,0,-31.202228)">
</g>
<g
   id="g36"
   transform="matrix(1,0,0,1.1238368,0,-31.202228)">
</g>
<g
   id="g38"
   transform="matrix(1,0,0,1.1238368,0,-31.202228)">
</g>
</svg>